<?xml version="1.0" encoding="UTF-8" standalone="no"?>
<!-- Created with Inkscape (http://www.inkscape.org/) -->

<svg
   version="1.1"
   id="svg1"
   width="500"
   height="500"
   viewBox="0 0 500 500"
   xmlns="http://www.w3.org/2000/svg"
   xmlns:svg="http://www.w3.org/2000/svg">
  <defs
     id="defs1" />
  <g
     id="g1">
    <path
       style="fill:#202427;stroke:none;stroke-width:1.49976"
       d="M 33.350903,1.2039263 C -13.047811,7.9971447 2.0222937,80.895186 2.0222937,115.14505 c 0,18.17428 -2.51398671,38.65583 16.4113723,48.4949 11.401034,5.92726 24.903769,4.27534 37.294816,4.27534 h 67.132738 193.93901 c 28.42346,0 65.12681,6.20982 92.49399,-1.76484 11.07205,-3.22631 20.45018,-12.36987 23.07975,-23.86642 5.15246,-22.52652 0.78967,-50.763284 0.78967,-73.878338 0,-13.237746 2.45302,-29.371162 -0.914,-42.216192 C 429.53538,15.834776 422.04501,7.4653865 412.2779,3.4689606 400.37906,-1.399703 386.06223,0.5582447 373.4901,0.5582447 H 298.89817 122.86122 c -29.078338,0 -60.734989,-3.5673089 -89.510317,0.6456816 M 443.6065,68.405692 v 37.693028 c 6.20068,0.0221 12.94379,-0.20093 16.3688,6.11927 3.79648,7.0057 1.53327,19.28087 1.53327,27.05059 0,22.2867 8.02219,60.28801 -13.42767,74.28899 -12.65311,8.25907 -34.81261,4.11252 -49.22955,4.11252 H 279.50426 c -28.97211,0 -58.74169,1.21149 -68.96183,34.67758 -5.04791,16.52944 -2.64641,35.67283 -2.64641,52.77024 -29.34444,1.29624 -26.8531,28.8611 -26.8531,51.26251 v 70.8629 c 0,13.83148 -1.64463,28.86516 2.66367,42.21618 5.50381,17.05593 23.29891,28.228 40.59965,28.56526 19.41138,0.37841 36.91849,-12.71155 42.09149,-31.5807 3.18081,-11.60233 1.17183,-25.73027 1.17183,-37.69303 V 354.8727 c 0,-21.61649 3.32362,-48.42688 -25.36126,-49.75479 0,-12.3408 -4.31499,-34.99967 3.6306,-45.14439 11.32735,-14.46245 47.12355,-7.62585 63.50214,-7.62585 h 101.44502 c 28.35072,0 54.49103,0.52747 74.02669,-24.12353 15.30707,-19.31516 12.49994,-43.21692 12.49994,-66.33974 0,-33.71859 8.83595,-79.541485 -32.82044,-90.829703 -6.8118,-1.845918 -13.85765,-2.590204 -20.88575,-2.649005 z"
       id="path1" />
  </g>
</svg>
